<svg width="334" height="24" viewBox="0 0 334 24" fill="none" xmlns="http://www.w3.org/2000/svg">
<g opacity="0.3">
<path d="M22 13.5C22.8284 13.5 23.5 12.8284 23.5 12C23.5 11.1716 22.8284 10.5 22 10.5L22 13.5ZM0.939341 10.9393C0.353554 11.5251 0.353554 12.4749 0.93934 13.0607L10.4853 22.6066C11.0711 23.1924 12.0208 23.1924 12.6066 22.6066C13.1924 22.0208 13.1924 21.0711 12.6066 20.4853L4.12132 12L12.6066 3.51472C13.1924 2.92893 13.1924 1.97918 12.6066 1.3934C12.0208 0.807611 11.0711 0.807611 10.4853 1.3934L0.939341 10.9393ZM22 10.5L2 10.5L2 13.5L22 13.5L22 10.5Z" fill="white"/>
</g>
<path d="M101.01 7.05941L108 5L105.96 12.0099L108 19L101.01 16.9604L94 19L96.0594 12.0099L94 5L101.01 7.05941Z" fill="#B9FF66"/>
<path d="M134.01 7.05941L141 5L138.96 12.0099L141 19L134.01 16.9604L127 19L129.059 12.0099L127 5L134.01 7.05941Z" fill="white"/>
<path d="M167.01 7.05941L174 5L171.96 12.0099L174 19L167.01 16.9604L160 19L162.059 12.0099L160 5L167.01 7.05941Z" fill="white"/>
<path d="M200.01 7.05941L207 5L204.96 12.0099L207 19L200.01 16.9604L193 19L195.059 12.0099L193 5L200.01 7.05941Z" fill="white"/>
<path d="M233.01 7.05941L240 5L237.96 12.0099L240 19L233.01 16.9604L226 19L228.059 12.0099L226 5L233.01 7.05941Z" fill="white"/>
<path d="M312 10.5C311.172 10.5 310.5 11.1716 310.5 12C310.5 12.8284 311.172 13.5 312 13.5L312 10.5ZM333.061 13.0607C333.646 12.4749 333.646 11.5251 333.061 10.9393L323.515 1.3934C322.929 0.807613 321.979 0.807613 321.393 1.3934C320.808 1.97919 320.808 2.92893 321.393 3.51472L329.879 12L321.393 20.4853C320.808 21.0711 320.808 22.0208 321.393 22.6066C321.979 23.1924 322.929 23.1924 323.515 22.6066L333.061 13.0607ZM312 13.5L332 13.5L332 10.5L312 10.5L312 13.5Z" fill="white"/>
</svg>
